<mxfile host="65bd71144e">
    <diagram id="0pBRfoJegKhvDdZDhVVB" name="Page-1">
        <mxGraphModel dx="2372" dy="2114" grid="1" gridSize="10" guides="1" tooltips="1" connect="1" arrows="1" fold="1" page="1" pageScale="1" pageWidth="850" pageHeight="1100" math="0" shadow="0">
            <root>
                <mxCell id="0"/>
                <mxCell id="1" parent="0"/>
                <mxCell id="5" style="edgeStyle=none;html=1;" parent="1" source="2" target="3" edge="1">
                    <mxGeometry relative="1" as="geometry"/>
                </mxCell>
                <mxCell id="2" value="Client" style="rounded=0;whiteSpace=wrap;html=1;" parent="1" vertex="1">
                    <mxGeometry x="-220" y="320" width="120" height="60" as="geometry"/>
                </mxCell>
                <mxCell id="4" value="Notification Environment" style="swimlane;whiteSpace=wrap;html=1;" parent="1" vertex="1">
                    <mxGeometry x="80" y="-240" width="1300" height="1280" as="geometry">
                        <mxRectangle x="80" y="-240" width="180" height="30" as="alternateBounds"/>
                    </mxGeometry>
                </mxCell>
                <mxCell id="44" style="edgeStyle=none;html=1;entryX=0;entryY=0.5;entryDx=0;entryDy=0;" parent="4" source="3" target="7" edge="1">
                    <mxGeometry relative="1" as="geometry"/>
                </mxCell>
                <mxCell id="50" style="edgeStyle=none;html=1;entryX=0;entryY=0.5;entryDx=0;entryDy=0;startArrow=none;startFill=0;" parent="4" source="3" target="10" edge="1">
                    <mxGeometry relative="1" as="geometry"/>
                </mxCell>
                <mxCell id="59" style="edgeStyle=none;html=1;entryX=0;entryY=0.5;entryDx=0;entryDy=0;startArrow=none;startFill=0;" parent="4" source="3" target="56" edge="1">
                    <mxGeometry relative="1" as="geometry"/>
                </mxCell>
                <mxCell id="3" value="Notification Gateway" style="rounded=0;whiteSpace=wrap;html=1;" parent="4" vertex="1">
                    <mxGeometry x="50" y="560" width="120" height="60" as="geometry"/>
                </mxCell>
                <mxCell id="8" value="Notification" style="swimlane;whiteSpace=wrap;html=1;" parent="4" vertex="1">
                    <mxGeometry x="260" y="520" width="200" height="220" as="geometry"/>
                </mxCell>
                <mxCell id="12" style="edgeStyle=none;html=1;" parent="8" source="7" target="11" edge="1">
                    <mxGeometry relative="1" as="geometry"/>
                </mxCell>
                <mxCell id="7" value="Notification&lt;br&gt;Service" style="rounded=0;whiteSpace=wrap;html=1;" parent="8" vertex="1">
                    <mxGeometry x="40" y="40" width="120" height="60" as="geometry"/>
                </mxCell>
                <mxCell id="11" value="Notification&lt;br&gt;Log DB" style="shape=cylinder3;whiteSpace=wrap;html=1;boundedLbl=1;backgroundOutline=1;size=15;" parent="8" vertex="1">
                    <mxGeometry x="60" y="120" width="80" height="80" as="geometry"/>
                </mxCell>
                <mxCell id="9" value="Settings" style="swimlane;whiteSpace=wrap;html=1;" parent="4" vertex="1">
                    <mxGeometry x="180" y="296.5" width="305" height="200" as="geometry"/>
                </mxCell>
                <mxCell id="53" style="edgeStyle=none;html=1;entryX=0;entryY=0.5;entryDx=0;entryDy=0;entryPerimeter=0;startArrow=none;startFill=0;" parent="9" source="10" target="52" edge="1">
                    <mxGeometry relative="1" as="geometry"/>
                </mxCell>
                <mxCell id="10" value="Rules&lt;br&gt;Service" style="rounded=0;whiteSpace=wrap;html=1;" parent="9" vertex="1">
                    <mxGeometry x="40" y="50" width="120" height="60" as="geometry"/>
                </mxCell>
                <mxCell id="51" value="Rate-Limit Time Expression Parser" style="rounded=0;whiteSpace=wrap;html=1;" parent="9" vertex="1">
                    <mxGeometry x="40" y="120" width="120" height="60" as="geometry"/>
                </mxCell>
                <mxCell id="52" value="Rules&lt;br&gt;DB" style="shape=cylinder3;whiteSpace=wrap;html=1;boundedLbl=1;backgroundOutline=1;size=15;" parent="9" vertex="1">
                    <mxGeometry x="200" y="93.5" width="70" height="90" as="geometry"/>
                </mxCell>
                <mxCell id="23" style="edgeStyle=none;html=1;entryX=0;entryY=0.5;entryDx=0;entryDy=0;entryPerimeter=0;" parent="4" source="14" target="20" edge="1">
                    <mxGeometry relative="1" as="geometry"/>
                </mxCell>
                <mxCell id="24" style="edgeStyle=none;html=1;entryX=0;entryY=0.5;entryDx=0;entryDy=0;entryPerimeter=0;" parent="4" source="14" target="21" edge="1">
                    <mxGeometry relative="1" as="geometry"/>
                </mxCell>
                <mxCell id="25" style="edgeStyle=none;html=1;entryX=0;entryY=0.5;entryDx=0;entryDy=0;entryPerimeter=0;" parent="4" source="14" target="22" edge="1">
                    <mxGeometry relative="1" as="geometry"/>
                </mxCell>
                <mxCell id="14" value="" style="verticalLabelPosition=bottom;html=1;verticalAlign=top;align=center;strokeColor=none;fillColor=#00BEF2;shape=mxgraph.azure.queue_generic;pointerEvents=1;" parent="4" vertex="1">
                    <mxGeometry x="540" y="550" width="80" height="40" as="geometry"/>
                </mxCell>
                <mxCell id="15" style="edgeStyle=none;html=1;entryX=0;entryY=0.5;entryDx=0;entryDy=0;entryPerimeter=0;" parent="4" source="7" target="14" edge="1">
                    <mxGeometry relative="1" as="geometry"/>
                </mxCell>
                <mxCell id="16" value="Email" style="swimlane;whiteSpace=wrap;html=1;" parent="4" vertex="1">
                    <mxGeometry x="840" y="60" width="200" height="140" as="geometry"/>
                </mxCell>
                <mxCell id="18" value="Notification&lt;br&gt;Email&lt;br&gt;Worker" style="rounded=0;whiteSpace=wrap;html=1;" parent="16" vertex="1">
                    <mxGeometry x="40" y="40" width="120" height="60" as="geometry"/>
                </mxCell>
                <mxCell id="26" style="edgeStyle=none;html=1;entryX=0;entryY=0.5;entryDx=0;entryDy=0;" parent="4" source="20" target="18" edge="1">
                    <mxGeometry relative="1" as="geometry"/>
                </mxCell>
                <mxCell id="20" value="" style="verticalLabelPosition=bottom;html=1;verticalAlign=top;align=center;strokeColor=none;fillColor=#00BEF2;shape=mxgraph.azure.queue_generic;pointerEvents=1;" parent="4" vertex="1">
                    <mxGeometry x="680" y="256.5" width="80" height="40" as="geometry"/>
                </mxCell>
                <mxCell id="31" style="edgeStyle=none;html=1;entryX=0;entryY=0.5;entryDx=0;entryDy=0;" parent="4" source="21" target="29" edge="1">
                    <mxGeometry relative="1" as="geometry"/>
                </mxCell>
                <mxCell id="21" value="" style="verticalLabelPosition=bottom;html=1;verticalAlign=top;align=center;strokeColor=none;fillColor=#00BEF2;shape=mxgraph.azure.queue_generic;pointerEvents=1;" parent="4" vertex="1">
                    <mxGeometry x="680" y="370" width="80" height="40" as="geometry"/>
                </mxCell>
                <mxCell id="36" style="edgeStyle=none;html=1;entryX=0;entryY=0.5;entryDx=0;entryDy=0;" parent="4" source="22" target="35" edge="1">
                    <mxGeometry relative="1" as="geometry"/>
                </mxCell>
                <mxCell id="22" value="" style="verticalLabelPosition=bottom;html=1;verticalAlign=top;align=center;strokeColor=none;fillColor=#00BEF2;shape=mxgraph.azure.queue_generic;pointerEvents=1;" parent="4" vertex="1">
                    <mxGeometry x="680" y="490" width="80" height="40" as="geometry"/>
                </mxCell>
                <mxCell id="27" value="SMS" style="swimlane;whiteSpace=wrap;html=1;" parent="4" vertex="1">
                    <mxGeometry x="840" y="230" width="200" height="120" as="geometry"/>
                </mxCell>
                <mxCell id="29" value="Notification&lt;br&gt;SMS &lt;br&gt;Worker" style="rounded=0;whiteSpace=wrap;html=1;" parent="27" vertex="1">
                    <mxGeometry x="40" y="40" width="120" height="60" as="geometry"/>
                </mxCell>
                <mxCell id="34" value="Vertical Container" style="swimlane;whiteSpace=wrap;html=1;" parent="4" vertex="1">
                    <mxGeometry x="840" y="390" width="200" height="120" as="geometry"/>
                </mxCell>
                <mxCell id="35" value="Notification&lt;br&gt;Push&lt;br&gt;Worker" style="rounded=0;whiteSpace=wrap;html=1;" parent="34" vertex="1">
                    <mxGeometry x="40" y="40" width="120" height="60" as="geometry"/>
                </mxCell>
                <mxCell id="37" value="exchange" style="text;html=1;align=center;verticalAlign=middle;resizable=0;points=[];autosize=1;strokeColor=none;fillColor=none;" parent="4" vertex="1">
                    <mxGeometry x="540" y="520" width="80" height="30" as="geometry"/>
                </mxCell>
                <mxCell id="40" value="Email" style="text;html=1;align=center;verticalAlign=middle;resizable=0;points=[];autosize=1;strokeColor=none;fillColor=none;" parent="4" vertex="1">
                    <mxGeometry x="695" y="226.5" width="50" height="30" as="geometry"/>
                </mxCell>
                <mxCell id="41" value="SMS" style="text;html=1;align=center;verticalAlign=middle;resizable=0;points=[];autosize=1;strokeColor=none;fillColor=none;" parent="4" vertex="1">
                    <mxGeometry x="695" y="340" width="50" height="30" as="geometry"/>
                </mxCell>
                <mxCell id="42" value="Push" style="text;html=1;align=center;verticalAlign=middle;resizable=0;points=[];autosize=1;strokeColor=none;fillColor=none;" parent="4" vertex="1">
                    <mxGeometry x="695" y="460" width="50" height="30" as="geometry"/>
                </mxCell>
                <mxCell id="46" style="edgeStyle=none;html=1;startArrow=blockThin;startFill=1;" parent="4" source="45" target="7" edge="1">
                    <mxGeometry relative="1" as="geometry"/>
                </mxCell>
                <mxCell id="45" value="" style="outlineConnect=0;dashed=0;verticalLabelPosition=bottom;verticalAlign=top;align=center;html=1;shape=mxgraph.aws3.cache_node;fillColor=#2E73B8;gradientColor=none;" parent="4" vertex="1">
                    <mxGeometry x="520" y="347" width="60" height="63" as="geometry"/>
                </mxCell>
                <mxCell id="48" style="edgeStyle=none;html=1;" parent="4" source="10" target="45" edge="1">
                    <mxGeometry relative="1" as="geometry">
                        <Array as="points">
                            <mxPoint x="420" y="350"/>
                        </Array>
                    </mxGeometry>
                </mxCell>
                <mxCell id="54" value="Bulk Notification" style="swimlane;whiteSpace=wrap;html=1;" parent="4" vertex="1">
                    <mxGeometry x="220" y="770" width="305" height="150" as="geometry"/>
                </mxCell>
                <mxCell id="55" style="edgeStyle=none;html=1;entryX=0;entryY=0.5;entryDx=0;entryDy=0;entryPerimeter=0;startArrow=none;startFill=0;" parent="54" source="56" target="58" edge="1">
                    <mxGeometry relative="1" as="geometry"/>
                </mxCell>
                <mxCell id="56" value="Bulk Notification&lt;br&gt;Service" style="rounded=0;whiteSpace=wrap;html=1;" parent="54" vertex="1">
                    <mxGeometry x="40" y="50" width="120" height="60" as="geometry"/>
                </mxCell>
                <mxCell id="58" value="Bulk Notification DB" style="shape=cylinder3;whiteSpace=wrap;html=1;boundedLbl=1;backgroundOutline=1;size=15;" parent="54" vertex="1">
                    <mxGeometry x="220" y="30" width="75" height="100" as="geometry"/>
                </mxCell>
                <mxCell id="66" style="edgeStyle=none;html=1;entryX=1;entryY=0.51;entryDx=0;entryDy=0;entryPerimeter=0;startArrow=none;startFill=0;" parent="4" source="60" target="65" edge="1">
                    <mxGeometry relative="1" as="geometry">
                        <Array as="points">
                            <mxPoint x="1155" y="790"/>
                        </Array>
                    </mxGeometry>
                </mxCell>
                <mxCell id="72" style="edgeStyle=none;html=1;entryX=1;entryY=0.51;entryDx=0;entryDy=0;entryPerimeter=0;startArrow=none;startFill=0;" parent="4" source="60" target="71" edge="1">
                    <mxGeometry relative="1" as="geometry">
                        <Array as="points">
                            <mxPoint x="1155" y="870"/>
                        </Array>
                    </mxGeometry>
                </mxCell>
                <mxCell id="81" style="edgeStyle=none;html=1;entryX=1;entryY=0.51;entryDx=0;entryDy=0;entryPerimeter=0;startArrow=none;startFill=0;exitX=1;exitY=0.51;exitDx=0;exitDy=0;exitPerimeter=0;" parent="4" source="60" target="80" edge="1">
                    <mxGeometry relative="1" as="geometry">
                        <Array as="points">
                            <mxPoint x="1155" y="680"/>
                            <mxPoint x="980" y="680"/>
                        </Array>
                    </mxGeometry>
                </mxCell>
                <mxCell id="60" value="" style="verticalLabelPosition=bottom;html=1;verticalAlign=top;align=center;strokeColor=none;fillColor=#00BEF2;shape=mxgraph.azure.queue_generic;pointerEvents=1;rotation=90;" parent="4" vertex="1">
                    <mxGeometry x="1115" y="590" width="80" height="40" as="geometry"/>
                </mxCell>
                <mxCell id="61" value="Notification&lt;br&gt;Status&lt;br&gt;Exchange" style="text;html=1;align=center;verticalAlign=middle;resizable=0;points=[];autosize=1;strokeColor=none;fillColor=none;" parent="4" vertex="1">
                    <mxGeometry x="1195" y="580" width="80" height="60" as="geometry"/>
                </mxCell>
                <mxCell id="62" style="edgeStyle=none;html=1;entryX=0;entryY=0.5;entryDx=0;entryDy=0;entryPerimeter=0;startArrow=none;startFill=0;" parent="4" source="35" target="60" edge="1">
                    <mxGeometry relative="1" as="geometry">
                        <Array as="points">
                            <mxPoint x="1155" y="460"/>
                        </Array>
                    </mxGeometry>
                </mxCell>
                <mxCell id="63" style="edgeStyle=none;html=1;entryX=0;entryY=0.5;entryDx=0;entryDy=0;entryPerimeter=0;startArrow=none;startFill=0;" parent="4" source="29" target="60" edge="1">
                    <mxGeometry relative="1" as="geometry">
                        <Array as="points">
                            <mxPoint x="1155" y="300"/>
                        </Array>
                    </mxGeometry>
                </mxCell>
                <mxCell id="64" style="edgeStyle=none;html=1;entryX=0;entryY=0.5;entryDx=0;entryDy=0;entryPerimeter=0;startArrow=none;startFill=0;" parent="4" source="18" target="60" edge="1">
                    <mxGeometry relative="1" as="geometry">
                        <Array as="points">
                            <mxPoint x="1155" y="130"/>
                        </Array>
                    </mxGeometry>
                </mxCell>
                <mxCell id="70" style="edgeStyle=none;html=1;entryX=1;entryY=0;entryDx=0;entryDy=0;startArrow=none;startFill=0;" parent="4" source="65" target="56" edge="1">
                    <mxGeometry relative="1" as="geometry">
                        <Array as="points">
                            <mxPoint x="570" y="770"/>
                        </Array>
                    </mxGeometry>
                </mxCell>
                <mxCell id="65" value="" style="verticalLabelPosition=bottom;html=1;verticalAlign=top;align=center;strokeColor=none;fillColor=#00BEF2;shape=mxgraph.azure.queue_generic;pointerEvents=1;" parent="4" vertex="1">
                    <mxGeometry x="760" y="770" width="80" height="40" as="geometry"/>
                </mxCell>
                <mxCell id="67" value="Bulk Notification&lt;br&gt;Status" style="text;html=1;align=center;verticalAlign=middle;resizable=0;points=[];autosize=1;strokeColor=none;fillColor=none;" parent="4" vertex="1">
                    <mxGeometry x="745" y="730" width="110" height="40" as="geometry"/>
                </mxCell>
                <mxCell id="77" style="edgeStyle=none;html=1;entryX=1;entryY=0;entryDx=0;entryDy=0;startArrow=none;startFill=0;" parent="4" source="71" target="75" edge="1">
                    <mxGeometry relative="1" as="geometry">
                        <Array as="points">
                            <mxPoint x="620" y="900"/>
                        </Array>
                    </mxGeometry>
                </mxCell>
                <mxCell id="71" value="" style="verticalLabelPosition=bottom;html=1;verticalAlign=top;align=center;strokeColor=none;fillColor=#00BEF2;shape=mxgraph.azure.queue_generic;pointerEvents=1;" parent="4" vertex="1">
                    <mxGeometry x="760" y="850" width="80" height="40" as="geometry"/>
                </mxCell>
                <mxCell id="73" value="Notification Status Webhook" style="swimlane;whiteSpace=wrap;html=1;" parent="4" vertex="1">
                    <mxGeometry x="220" y="950" width="305" height="150" as="geometry"/>
                </mxCell>
                <mxCell id="74" style="edgeStyle=none;html=1;entryX=0;entryY=0.5;entryDx=0;entryDy=0;entryPerimeter=0;startArrow=none;startFill=0;" parent="73" source="75" target="76" edge="1">
                    <mxGeometry relative="1" as="geometry"/>
                </mxCell>
                <mxCell id="75" value="Notification Status Webhook&lt;br&gt;Service" style="rounded=0;whiteSpace=wrap;html=1;" parent="73" vertex="1">
                    <mxGeometry x="40" y="50" width="120" height="60" as="geometry"/>
                </mxCell>
                <mxCell id="76" value="Notification Webhook&lt;br&gt;Log" style="shape=cylinder3;whiteSpace=wrap;html=1;boundedLbl=1;backgroundOutline=1;size=15;" parent="73" vertex="1">
                    <mxGeometry x="220" y="30" width="75" height="100" as="geometry"/>
                </mxCell>
                <mxCell id="79" value="Bulk Notification&lt;br&gt;Status" style="text;html=1;align=center;verticalAlign=middle;resizable=0;points=[];autosize=1;strokeColor=none;fillColor=none;" parent="4" vertex="1">
                    <mxGeometry x="755" y="900" width="110" height="40" as="geometry"/>
                </mxCell>
                <mxCell id="82" style="edgeStyle=none;html=1;entryX=1;entryY=0.75;entryDx=0;entryDy=0;startArrow=none;startFill=0;" parent="4" source="80" target="7" edge="1">
                    <mxGeometry relative="1" as="geometry"/>
                </mxCell>
                <mxCell id="80" value="" style="verticalLabelPosition=bottom;html=1;verticalAlign=top;align=center;strokeColor=none;fillColor=#00BEF2;shape=mxgraph.azure.queue_generic;pointerEvents=1;" parent="4" vertex="1">
                    <mxGeometry x="760" y="660" width="80" height="40" as="geometry"/>
                </mxCell>
                <mxCell id="84" value="Notification Request &lt;br&gt;Status Queue&amp;nbsp;" style="text;html=1;align=center;verticalAlign=middle;resizable=0;points=[];autosize=1;strokeColor=none;fillColor=none;" parent="4" vertex="1">
                    <mxGeometry x="735" y="610" width="130" height="40" as="geometry"/>
                </mxCell>
                <mxCell id="85" value="Send webhook request&lt;br&gt;based on the URL sent inside&amp;nbsp;&lt;br&gt;notification request" style="text;html=1;align=center;verticalAlign=middle;resizable=0;points=[];autosize=1;strokeColor=#666666;fillColor=#f5f5f5;fontColor=#333333;" parent="4" vertex="1">
                    <mxGeometry x="230" y="1110" width="180" height="60" as="geometry"/>
                </mxCell>
                <mxCell id="86" style="edgeStyle=none;html=1;entryX=0;entryY=1;entryDx=0;entryDy=0;" edge="1" parent="4" source="56" target="7">
                    <mxGeometry relative="1" as="geometry"/>
                </mxCell>
            </root>
        </mxGraphModel>
    </diagram>
</mxfile>